# xmcd
#
# Track frame offsets:
#	150
#	30668
#	65202
#	105263
#	143917
#	170827
#	204910
#	248277
#	291761
#
# Disc length: 4386 seconds
#
# Revision: 1
# Processed by: cddbd v1.5.1PL0 Copyright (c) Steve Scherf et al.
# Submitted via: CDmax 2.0
#
DISCID=7b112009
DTITLE=Hot Tuna - Live in Somerville, MA - 11.26.99 - d2
DYEAR=1999
DGENRE=Blues
TTITLE0=Water Song
TTITLE1=I Can't Be Satisfied
TTITLE2=AK-47*
TTITLE3=Big Boss Man*
TTITLE4=Hit Single #1
TTITLE5=Ode For Billy Dean
TTITLE6=Bowlegged Woman, Knock Kneed Man
TTITLE7=Funky #7
TTITLE8=Goin' Down The The Road Feelin' Bad
EXTD=11-26-99\nSomerville Theatre, Somerville, MA \nw/Michael Falzarano, Pet
EXTD=e Sears, Harvey Sorgen\nOpening Act: Derek Trucks Band\n*w/Derek Trucks\
EXTD=n\nElectric: \nFools Blues\nHow Long Blues\nBeen So Long\nDo Not Go Gent
EXTD=le\nI See The Light\nHesitation Blues\nWalkin' Blues\nGypsy Fire\n99 Yea
EXTD=r Blues\nAnother Man Done Gone ->\nParchman Farm\nBar Room Crystal Ball\
EXTD=nWater Song\n\nI Can't Be Satisfied\nAK-47*\nBig Boss Man*\nHit Single #
EXTD=1\nOde For Billy Dean\nBowlegged Woman, Knock Kneed Man\nFunky #7\nGoin
EXTD=' Down The The Road Feelin' Bad
EXTT0=
EXTT1=
EXTT2=
EXTT3=
EXTT4=
EXTT5=
EXTT6=
EXTT7=
EXTT8=
PLAYORDER=
